<?xml version="1.0" standalone="no"?>
<!DOCTYPE svg PUBLIC "-//W3C//DTD SVG 20010904//EN"
 "http://www.w3.org/TR/2001/REC-SVG-20010904/DTD/svg10.dtd">
<svg version="1.0" xmlns="http://www.w3.org/2000/svg"
 width="700.000000pt" height="700.000000pt" viewBox="0 0 700.000000 700.000000"
 preserveAspectRatio="xMidYMid meet">
<metadata>
Created by potrace 1.11, written by Peter Selinger 2001-2013
</metadata>
<g transform="translate(0.000000,700.000000) scale(0.100000,-0.100000)"
fill="#000000" stroke="none">
<path d="M3245 6469 c-319 -43 -504 -297 -573 -784 -9 -65 -9 -453 0 -530 54
-462 250 -740 555 -789 227 -36 437 41 562 206 65 87 144 263 165 368 2 14 11
60 20 103 28 143 38 390 22 577 -48 586 -331 907 -751 849z m200 -224 c154
-44 259 -227 290 -509 3 -28 8 -71 10 -96 6 -55 6 -392 1 -440 -3 -19 -7 -64
-11 -100 -4 -36 -8 -72 -10 -80 -2 -8 -6 -29 -9 -46 -10 -56 -48 -168 -71
-215 -29 -56 -98 -130 -145 -154 -73 -38 -173 -49 -260 -29 -115 26 -219 142
-265 294 -42 142 -60 305 -59 555 0 280 22 435 80 584 83 209 245 294 449 236z"/>
<path d="M3230 5610 c-79 -42 -120 -118 -116 -216 4 -78 53 -151 127 -190 40
-20 129 -20 173 1 43 21 93 75 113 124 45 106 -15 250 -119 288 -51 18 -138
15 -178 -7z"/>
<path d="M1385 6372 c-82 -43 -182 -95 -221 -115 l-70 -37 -1 -115 c0 -63 3
-115 8 -115 4 0 96 44 204 99 l195 99 0 -127 c1 -209 1 -1362 0 -1412 l0 -47
-212 1 -213 0 -3 -104 -3 -104 536 0 c528 0 535 0 536 20 4 81 3 169 -2 177
-5 7 -77 11 -203 11 l-196 -1 0 924 0 924 -102 0 -103 -1 -150 -77z"/>
<path d="M4875 6339 c-115 -60 -214 -110 -218 -112 -7 -2 -12 -154 -8 -228 1
-11 52 11 196 83 108 55 199 97 203 94 4 -2 7 -357 7 -788 l0 -783 -210 -2
c-116 -1 -213 -2 -216 -2 -4 -1 -6 -47 -5 -103 l1 -103 520 0 c286 -1 527 1
536 3 13 3 16 19 15 97 -1 51 -4 97 -8 101 -4 4 -95 7 -202 7 l-194 -1 0 897
c-1 493 -1 908 -2 924 l0 27 -102 -1 -103 0 -210 -110z"/>
<path d="M1363 2741 c-229 -76 -367 -268 -442 -613 -50 -236 -48 -645 5 -863
98 -398 297 -600 601 -610 211 -7 371 66 492 222 83 108 166 335 186 508 3 28
8 61 11 75 9 43 11 381 3 463 -10 99 -19 169 -24 177 -2 3 -6 25 -10 49 -16
108 -78 263 -146 363 -121 178 -281 261 -496 257 -78 -2 -119 -8 -180 -28z
m340 -214 c106 -49 180 -155 222 -319 37 -148 49 -270 49 -503 0 -575 -126
-833 -410 -841 -219 -6 -349 145 -403 471 -23 138 -32 449 -18 590 4 33 9 87
13 120 21 210 110 398 221 466 89 55 227 62 326 16z"/>
<path d="M1486 1919 c-16 -4 -43 -18 -60 -30 -142 -97 -110 -328 54 -395 34
-14 108 -12 150 5 80 33 143 137 135 227 -5 56 -19 87 -60 133 -54 60 -135 82
-219 60z"/>
<path d="M4954 2756 c-84 -22 -194 -83 -249 -141 -118 -124 -209 -329 -240
-540 -3 -22 -8 -46 -10 -53 -6 -18 -18 -232 -18 -322 0 -82 11 -262 18 -294 2
-12 7 -39 10 -61 18 -130 75 -295 136 -398 49 -82 145 -182 211 -219 100 -56
164 -71 293 -72 188 -1 296 42 416 165 118 121 194 301 240 569 15 83 19 484
6 590 -23 197 -69 352 -144 482 -118 207 -283 305 -513 306 -58 0 -128 -5
-156 -12z m263 -214 c117 -37 202 -135 248 -286 49 -166 60 -269 60 -551 -1
-254 -10 -351 -46 -490 -42 -165 -115 -271 -224 -325 -69 -34 -215 -35 -288
-2 -189 86 -275 344 -275 827 0 391 56 620 182 748 88 89 216 118 343 79z"/>
<path d="M5032 1917 c-88 -33 -142 -111 -142 -207 0 -70 25 -124 78 -172 87
-78 205 -73 289 14 102 105 72 288 -56 353 -44 22 -127 28 -169 12z"/>
<path d="M3259 2717 c-30 -15 -129 -67 -221 -114 l-168 -86 0 -119 0 -118 163
80 c89 44 170 85 180 91 10 5 29 14 42 19 l23 9 0 -790 0 -789 -216 0 -217 0
2 -97 c0 -54 2 -101 2 -105 1 -5 242 -8 536 -8 l536 0 -3 103 -3 102 -135 2
c-74 1 -164 2 -200 3 l-65 0 0 916 c0 503 -2 918 -5 922 -3 4 -48 7 -101 8
-88 0 -102 -3 -150 -29z"/>
</g>
</svg>
